<svg
	xmlns="http://www.w3.org/2000/svg"
	viewBox="0 0 2048 1792"
>
	<path
		d="M1024 128c-247 0-448 201-448 448v256c0 247 201 448 448 448h128v160H832c-35 0-64 29-64 64s29 64 64 64h640c35 0 64-29 64-64s-29-64-64-64h-320v-160h128c247 0 448-201 448-448V576c0-247-201-448-448-448h-256Zm0 128h256c177 0 320 143 320 320v256c0 177-143 320-320 320h-256c-177 0-320-143-320-320V576c0-177 143-320 320-320Zm-128 256c-35 0-64 29-64 64v256c0 35 29 64 64 64s64-29 64-64V576c0-35-29-64-64-64Zm256 0c-35 0-64 29-64 64v256c0 35 29 64 64 64s64-29 64-64V576c0-35-29-64-64-64Zm256 0c-35 0-64 29-64 64v256c0 35 29 64 64 64s64-29 64-64V576c0-35-29-64-64-64Z"
		fill="#ffffff"
	/>
</svg>
