<?xml version="1.0" encoding="UTF-8" standalone="no"?>
<!DOCTYPE svg PUBLIC "-//W3C//DTD SVG 1.1//EN" "http://www.w3.org/Graphics/SVG/1.1/DTD/svg11.dtd">
<svg width="100%" height="100%" viewBox="0 0 2048 1792" version="1.1" xmlns="http://www.w3.org/2000/svg" xmlns:xlink="http://www.w3.org/1999/xlink" xml:space="preserve" xmlns:serif="http://www.serif.com/" style="fill-rule:evenodd;clip-rule:evenodd;stroke-linejoin:round;stroke-miterlimit:2;">
    <g transform="matrix(1.066667,0,0,1.066667,-68.266667,-196.266667)">
        <path d="M896,1088L896,960C896,950.667 893,943 887,937C881,931 873.333,928 864,928L672,928L672,736C672,726.667 669,719 663,713C657,707 649.333,704 640,704L512,704C502.667,704 495,707 489,713C483,719 480,726.667 480,736L480,928L288,928C278.667,928 271,931 265,937C259,943 256,950.667 256,960L256,1088C256,1097.333 259,1105 265,1111C271,1117 278.667,1120 288,1120L480,1120L480,1312C480,1321.333 483,1329 489,1335C495,1341 502.667,1344 512,1344L640,1344C649.333,1344 657,1341 663,1335C669,1329 672,1321.333 672,1312L672,1120L864,1120C873.333,1120 881,1117 887,1111C893,1105 896,1097.333 896,1088ZM1472,1152C1472,1116.667 1459.5,1086.5 1434.5,1061.5C1409.5,1036.5 1379.333,1024 1344,1024C1308.667,1024 1278.5,1036.5 1253.5,1061.5C1228.5,1086.5 1216,1116.667 1216,1152C1216,1187.333 1228.5,1217.5 1253.5,1242.5C1278.5,1267.5 1308.667,1280 1344,1280C1379.333,1280 1409.5,1267.5 1434.5,1242.5C1459.5,1217.5 1472,1187.333 1472,1152ZM1728,896C1728,860.667 1715.5,830.5 1690.5,805.5C1665.5,780.5 1635.333,768 1600,768C1564.667,768 1534.5,780.5 1509.5,805.5C1484.5,830.5 1472,860.667 1472,896C1472,931.333 1484.5,961.5 1509.5,986.5C1534.5,1011.5 1564.667,1024 1600,1024C1635.333,1024 1665.5,1011.5 1690.5,986.5C1715.5,961.5 1728,931.333 1728,896ZM1984,1024C1984,1165.333 1934,1286 1834,1386C1734,1486 1613.333,1536 1472,1536C1344,1536 1231.333,1493.333 1134,1408L914,1408C816.667,1493.333 704,1536 576,1536C434.667,1536 314,1486 214,1386C114,1286 64,1165.333 64,1024C64,882.667 114,762 214,662C314,562 434.667,512 576,512L1472,512C1613.333,512 1734,562 1834,662C1934,762 1984,882.667 1984,1024Z" style="fill-rule:nonzero;"/>
    </g>
</svg>
